<svg width="114" height="24" viewBox="0 0 114 24" fill="none" xmlns="http://www.w3.org/2000/svg">
<path fill-rule="evenodd" clip-rule="evenodd" d="M10.0491 3.59985C3.92707 2.24985 -0.667923 6.8699 0.705077 13.0199C0.982939 14.2718 1.61016 15.4193 2.51395 16.3291C3.41773 17.2389 4.56101 17.8737 5.81108 18.1599C11.9111 19.5499 16.5111 14.9199 15.1581 8.74988C14.8826 7.49531 14.2559 6.34498 13.3513 5.43311C12.4467 4.52123 11.3014 3.88538 10.0491 3.59985ZM7.94208 16.0599C6.61673 15.9863 5.36991 15.4079 4.45772 14.4436C3.54552 13.4793 3.03722 12.2023 3.03722 10.8749C3.03722 9.54749 3.54552 8.27045 4.45772 7.30615C5.36991 6.34186 6.61673 5.76347 7.94208 5.68982C10.8181 5.68982 12.8261 7.81987 12.8261 10.8699C12.8261 13.9199 10.8171 16.0599 7.94208 16.0599ZM26.7221 3.35986C25.7879 3.31525 24.8551 3.47461 23.9887 3.8269C23.1223 4.1792 22.3431 4.71601 21.7051 5.3999V3.46985H19.2411V18.2699H21.7851V10.5199C21.7851 7.5299 23.5001 5.73987 26.3741 5.73987C28.9231 5.73987 30.2741 7.18993 30.2741 9.92993V18.2699H32.8181V9.73987C32.8141 5.74987 30.5361 3.35986 26.7221 3.35986ZM44.7091 3.35986C43.7468 3.32982 42.7899 3.51431 41.9077 3.90002C41.0256 4.28574 40.2404 4.86298 39.6091 5.58984V3.46985H37.1461V23.4899H39.7001V16.2499C40.3289 16.9532 41.1036 17.5108 41.9701 17.8839C42.8366 18.257 43.774 18.4365 44.7171 18.4099C46.676 18.3536 48.5358 17.5354 49.9011 16.1295C51.2664 14.7236 52.0297 12.8407 52.0286 10.881C52.0276 8.92122 51.2623 7.03909 49.8955 5.63464C48.5287 4.23019 46.6681 3.41413 44.7091 3.35986ZM44.5781 16.0599C43.2573 15.9779 42.0175 15.3953 41.1112 14.431C40.2049 13.4667 39.7004 12.1932 39.7004 10.8699C39.7004 9.54655 40.2049 8.27302 41.1112 7.30872C42.0175 6.34442 43.2573 5.76196 44.5781 5.67993C45.2481 5.67564 45.9118 5.80906 46.5281 6.07202C47.1444 6.33498 47.7 6.72181 48.1605 7.2085C48.6211 7.69518 48.9766 8.27128 49.2052 8.90112C49.4337 9.53097 49.5303 10.2011 49.4891 10.8699C49.5379 11.5403 49.4466 12.2136 49.2208 12.8468C48.995 13.48 48.6398 14.0592 48.1777 14.5475C47.7157 15.0358 47.157 15.4225 46.5372 15.6829C45.9174 15.9432 45.2502 16.0717 44.5781 16.0599ZM80.7441 3.47986V18.2799H83.2881V3.47986H80.7441ZM95.5821 3.36987C94.6479 3.32547 93.7152 3.485 92.8489 3.83728C91.9825 4.18956 91.2032 4.72618 90.5651 5.40991V3.47986H88.1001V18.2799H90.6431V10.5299C90.6431 7.52991 92.3581 5.73987 95.2321 5.73987C97.7811 5.73987 99.1321 7.18993 99.1321 9.92993V18.2799H101.676V9.74988C101.674 5.74988 99.4001 3.36987 95.5821 3.36987ZM112.551 15.0599L112.233 15.3499C111.714 15.7837 111.054 16.0115 110.378 15.9899C108.988 15.9899 108.283 15.2399 108.283 13.7499V5.66992H112.534V3.40991H108.283V0.339844H105.749V13.8599C105.749 16.6699 107.359 18.2799 110.165 18.2799C111.316 18.3132 112.44 17.9296 113.331 17.1998L113.514 17.0399L112.551 15.0599ZM66.0401 0.749878C64.0201 0.73204 62.0404 1.315 60.3524 2.42468C58.6644 3.53436 57.3444 5.12067 56.5599 6.98218C55.7754 8.84369 55.5619 10.8964 55.9465 12.8795C56.3311 14.8626 57.2964 16.6867 58.7198 18.12C60.1433 19.5533 61.9606 20.5312 63.9411 20.9294C65.9215 21.3277 67.9756 21.1284 69.8424 20.3568C71.7093 19.5852 73.3047 18.2761 74.4261 16.5958C75.5474 14.9156 76.144 12.94 76.1401 10.9199C76.1885 9.57728 75.961 8.23895 75.4715 6.98779C74.9819 5.73663 74.2409 4.59915 73.2942 3.64587C72.3475 2.69259 71.2152 1.94382 69.9675 1.44568C68.7197 0.94754 67.383 0.710696 66.0401 0.749878ZM70.6401 15.5499L61.3541 15.5599C61.0081 15.5581 60.677 15.4191 60.4333 15.1736C60.1897 14.928 60.0533 14.5958 60.0541 14.2499V7.67993C60.0527 7.32091 60.194 6.97594 60.4467 6.72095C60.6994 6.46595 61.043 6.32168 61.4021 6.31982H70.6401C70.9991 6.32168 71.3427 6.46595 71.5955 6.72095C71.8482 6.97594 71.9894 7.32091 71.9881 7.67993V14.1998C71.9886 14.3769 71.9542 14.5524 71.8868 14.7162C71.8194 14.88 71.7203 15.0288 71.5953 15.1542C71.4702 15.2796 71.3217 15.3791 71.1581 15.447C70.9945 15.5149 70.8192 15.5499 70.6421 15.5499H70.6401Z" fill="#171717"/>
</svg>
